<?xml version="1.0" encoding="utf-8"?>
<!-- Generator: Adobe Illustrator 25.3.0, SVG Export Plug-In . SVG Version: 6.00 Build 0)  -->
<svg version="1.1"
	 id="SVGRoot" inkscape:export-filename="image.png" xmlns:inkscape="http://www.inkscape.org/namespaces/inkscape" xmlns:sodipodi="http://sodipodi.sourceforge.net/DTD/sodipodi-0.dtd" xmlns:svg="http://www.w3.org/2000/svg"
	 xmlns="http://www.w3.org/2000/svg" xmlns:xlink="http://www.w3.org/1999/xlink" x="0px" y="0px" viewBox="0 0 3840 2160"
	 style="enable-background:new 0 0 3840 2160;" xml:space="preserve">
<style type="text/css">
	.st0{stroke:#231F20;stroke-width:6;}
	.st1{font-family:'Raleway-Medium';}
	.st2{font-size:468px;}
	.st3{fill:#06B6D4;stroke:#231F20;stroke-width:7.0763;}
	.st4{fill:#FFFFFF;stroke:#231F20;stroke-width:6;}
	.st5{opacity:0.99;fill:#FFFFFF;stroke:#231F20;stroke-width:6;stroke-miterlimit:90.7087;enable-background:new    ;}
	.st6{opacity:0.99;fill:#FFFFFF;stroke:#231F20;stroke-width:6;enable-background:new    ;}
</style>
<sodipodi:namedview  bordercolor="#000000" borderopacity="0.25" id="namedview8910" inkscape:current-layer="layer1" inkscape:cx="1313.8852" inkscape:cy="789.34964" inkscape:deskcolor="#d1d1d1" inkscape:document-units="px" inkscape:pagecheckerboard="0" inkscape:pageopacity="1" inkscape:showpageshadow="2" inkscape:window-height="704" inkscape:window-maximized="1" inkscape:window-width="1366" inkscape:window-x="0" inkscape:window-y="27" inkscape:zoom="0.098182093" pagecolor="#000000" showgrid="false">
	</sodipodi:namedview>
<text transform="matrix(1 0 0 1 395.8376 1200.978)" class="st0 st1 st2">intrepid</text>
<path id="rect6022" class="st3" d="M2182.5,859.9h929.3c45.2,0,81.9,36.7,81.9,81.9v260.8c0,45.2-36.7,81.9-81.9,81.9h-929.3
	c-45.2,0-81.9-36.7-81.9-81.9V941.8C2100.6,896.5,2137.3,859.9,2182.5,859.9z"/>
<text transform="matrix(1 0 0 1 2136.6685 1217.0028)" class="st4 st1 st2">C</text>
<text transform="matrix(1 0 0 1 2705.6035 1217.0028)" class="st4 st1 st2">re</text>
<g id="g1972">
	
		<path id="path4349" inkscape:flatsided="true" inkscape:randomized="0" inkscape:rounded="-3.469447e-18" inkscape:transform-center-x="1.3228346e-06" inkscape:transform-center-y="-1.8708661e-06" sodipodi:arg1="0.18878134" sodipodi:arg2="0.71238012" sodipodi:cx="105" sodipodi:cy="148.49998" sodipodi:r1="5.8182588" sodipodi:r2="5.5559754" sodipodi:sides="6" sodipodi:type="star" class="st5" d="
		M2702.4,1119.8l-86.2,99.9l-129.6-24.8l-43.4-124.6l86.2-99.9l129.6,24.8L2702.4,1119.8z"/>
	<path id="path4377" class="st6" d="M2659,995.2l-146.8,39.3L2659,995.2z"/>
	<path id="path4381" class="st6" d="M2443.2,1070.3l99.7,109.5L2443.2,1070.3z"/>
	<path id="path4383" class="st6" d="M2486.5,1194.9l117.8-31.6L2486.5,1194.9z"/>
	<path id="path4385" class="st6" d="M2604.4,1163.4l29-7.8L2604.4,1163.4z"/>
	<path id="path4387" class="st6" d="M2616.1,1219.7l39.3-146.8L2616.1,1219.7z"/>
	<path id="path4389" class="st6" d="M2702.4,1119.8l-107.4-107.4L2702.4,1119.8z"/>
	<path id="path4379" class="st6" d="M2529.4,970.5l-34.7,129.6L2529.4,970.5z"/>
	<path id="path4391" class="st6" d="M2494.7,1100.1l-5.6,20.8L2494.7,1100.1z"/>
</g>
<g id="SVGRepo_bgCarrier" transform="matrix(1.2966432,0,0,1.2966432,2232.2539,1201.4544)">
</g>
<g id="SVGRepo_tracerCarrier" transform="matrix(1.2966432,0,0,1.2966432,2232.2539,1201.4544)">
</g>
</svg>
